<svg id="Capa_1" enable-background="new 0 0 512 512" height="512" viewBox="0 0 512 512" width="512" xmlns="http://www.w3.org/2000/svg"><g><g><path d="m478.26 81.419 8.3 23.339c.355.999 1.059 1.791 1.947 2.191l20.736 9.342c2.93 1.32 2.93 5.987 0 7.307l-20.736 9.342c-.888.4-1.591 1.192-1.947 2.191l-8.3 23.339c-1.173 3.297-5.319 3.297-6.492 0l-8.3-23.339c-.355-.999-1.059-1.791-1.947-2.191l-20.736-9.342c-2.93-1.32-2.93-5.987 0-7.307l20.736-9.342c.888-.4 1.591-1.192 1.947-2.191l8.3-23.339c1.173-3.298 5.32-3.298 6.492 0z"/><path d="m310.325 10.736 6.157 17.312c.264.741.786 1.328 1.444 1.625l15.382 6.93c2.173.979 2.173 4.441 0 5.42l-15.382 6.93c-.659.297-1.18.884-1.444 1.625l-6.157 17.312c-.87 2.446-3.946 2.446-4.816 0l-6.157-17.312c-.264-.741-.785-1.328-1.444-1.625l-15.381-6.93c-2.173-.979-2.173-4.441 0-5.42l15.381-6.93c.659-.297 1.181-.884 1.444-1.625l6.157-17.312c.87-2.446 3.947-2.446 4.816 0z"/><ellipse cx="59.932" cy="45.43" rx="18.124" ry="18.124" transform="matrix(.071 -.998 .998 .071 10.368 101.991)"/><ellipse cx="421.079" cy="37.795" rx="7.818" ry="7.818" transform="matrix(.993 -.122 .122 .993 -1.463 51.733)"/></g><g><ellipse cx="420.135" cy="309.737" rx="22.014" ry="22.014" transform="matrix(.383 -.924 .924 .383 -26.803 579.36)"/><ellipse cx="348.826" cy="309.737" rx="22.014" ry="22.014" transform="matrix(.526 -.851 .851 .526 -98.041 443.627)"/><path d="m512 307.828c0-78.38-73.2-142.147-163.174-142.147-10.964 0-21.672.964-32.034 2.774-22.628-54.867-82.943-94.215-153.618-94.215-89.975.001-163.174 63.768-163.174 142.147 0 53.668 34.778 102.662 89.28 126.782-3.128 18.129-8.877 36.312-17.128 54.16-1.76 3.805-.983 8.302 1.949 11.297 1.939 1.98 4.553 3.032 7.213 3.031 1.363 0 2.74-.276 4.042-.846 31.78-13.902 58.538-31.48 79.602-52.285 10.346-.097 20.459-1.047 30.263-2.754 22.439 54.398 81.92 93.541 151.821 94.194 21.063 20.805 47.821 38.384 79.602 52.286 1.303.57 2.678.846 4.042.846 2.659 0 5.273-1.051 7.213-3.03 2.933-2.995 3.71-7.492 1.95-11.297-8.253-17.847-14.001-36.031-17.129-54.16 54.501-24.121 89.28-73.116 89.28-126.783zm-348.827 30.523c-.584 0-1.167-.009-1.749-.018l-.517-.007c-.046-.001-.092-.001-.137-.001-2.726 0-5.34 1.104-7.241 3.062-14.543 14.98-32.351 28.248-53.141 39.614 4.804-14.194 8.173-28.514 10.06-42.8.609-4.614-2.015-9.046-6.355-10.729-50.974-19.78-83.911-63.383-83.911-111.084 0-67.251 64.145-121.963 142.99-121.963 78.846 0 142.991 54.713 142.991 121.963s-64.143 121.963-142.99 121.963zm244.732 80.561c-4.339 1.683-6.964 6.115-6.355 10.729 1.887 14.286 5.256 28.605 10.06 42.8-20.79-11.367-38.599-24.635-53.141-39.615-1.901-1.958-4.514-3.062-7.241-3.062-.045 0-.091 0-.137.001l-.515.007c-.582.009-1.166.018-1.751.018-60.973 0-113.136-32.727-133.66-78.663 18.13-5.323 34.85-13.341 49.515-23.518 3.613 2.602 8.042 4.141 12.835 4.141 12.158 0 22.014-9.856 22.014-22.013 0-4.149-1.153-8.026-3.149-11.339 18.866-23.187 29.967-51.489 29.967-82.01 0-9.768-1.138-19.31-3.303-28.53 8.365-1.306 16.98-1.993 25.78-1.993 78.846 0 142.991 54.713 142.991 121.963.002 47.701-32.936 91.304-83.91 111.084z"/><path d="m161.86 292.861c-1.347 0-2.693-.448-3.802-1.343-.793-.64-19.623-15.896-37.958-36.117-25.365-27.972-36.773-51.077-33.915-68.678 1.76-22.112 20.448-39.391 42.675-39.391 13.63 0 26.343 6.626 34.316 17.249 7.973-10.624 20.686-17.249 34.316-17.249 22.848 0 41.563 17.78 42.757 40.543 2.584 17.255-9.378 40.065-35.559 67.8-18.933 20.056-38.282 35.262-39.096 35.899-1.099.859-2.417 1.287-3.734 1.287zm-33.001-133.42c-16.01 0-29.459 12.497-30.619 28.451-.015.197-.038.393-.072.587-4.576 26.581 41.396 71.668 63.752 90.522 22.995-18.772 70.514-63.649 66.318-89.545-.037-.232-.061-.465-.072-.699-.733-16.439-14.208-29.317-30.676-29.317-12.613 0-24.132 7.912-28.665 19.688-.9 2.338-3.146 3.88-5.651 3.88s-4.751-1.542-5.651-3.88c-4.532-11.775-16.052-19.687-28.664-19.687z"/></g></g></svg>